<svg width="4" height="20" viewBox="0 0 4 20" fill="none" xmlns="http://www.w3.org/2000/svg">
<path d="M4 2.07692C4 3.22398 3.10457 4.15385 2 4.15385C0.89543 4.15385 0 3.22398 0 2.07692C0 0.92987 0.89543 0 2 0C3.10457 0 4 0.92987 4 2.07692Z" fill="#161A41"/>
<path d="M4 10C4 11.1471 3.10457 12.0769 2 12.0769C0.89543 12.0769 0 11.1471 0 10C0 8.85295 0.89543 7.92308 2 7.92308C3.10457 7.92308 4 8.85295 4 10Z" fill="#161A41"/>
<path d="M4 17.9231C4 19.0701 3.10457 20 2 20C0.89543 20 0 19.0701 0 17.9231C0 16.776 0.89543 15.8462 2 15.8462C3.10457 15.8462 4 16.776 4 17.9231Z" fill="#161A41"/>
</svg>
