<svg width="22" height="22" viewBox="0 0 22 22" fill="none" xmlns="http://www.w3.org/2000/svg">
<g clip-path="url(#clip0)">
<path d="M14.5833 12.4878L22 17.1765V7.60101L14.5833 12.4878Z" fill="#161A41"/>
<path d="M0 7.60101V17.1765L7.41675 12.4878L0 7.60101Z" fill="#161A41"/>
<path d="M20.625 4.8125H1.37499C0.68887 4.8125 0.14437 5.324 0.0412445 5.98262L11 13.2028L21.9587 5.98262C21.8556 5.324 21.3111 4.8125 20.625 4.8125Z" fill="#161A41"/>
<path d="M13.3238 13.3182L11.3781 14.5997C11.2626 14.6754 11.132 14.7125 11 14.7125C10.868 14.7125 10.7374 14.6754 10.6219 14.5997L8.67626 13.3169L0.0440063 18.777C0.149881 19.4301 0.691631 19.9375 1.37501 19.9375H20.625C21.3084 19.9375 21.8501 19.4301 21.956 18.777L13.3238 13.3182Z" fill="#161A41"/>
<path d="M19.25 2.0625H2.75C1.991 2.0625 1.375 2.6785 1.375 3.4375H20.625C20.625 2.6785 20.009 2.0625 19.25 2.0625Z" fill="#161A41"/>
</g>
<defs>
<clipPath id="clip0">
<rect width="22" height="22" fill="white"/>
</clipPath>
</defs>
</svg>
