<svg width="37" height="37" viewBox="0 0 37 37" fill="none" xmlns="http://www.w3.org/2000/svg">
<g clip-path="url(#clip0)">
<path fill-rule="evenodd" clip-rule="evenodd" d="M31.8438 21.344C33.0711 22.5423 34.3665 23.6697 35.4673 24.9888C35.9536 25.575 36.4139 26.1799 36.7661 26.8602C37.2651 27.8273 36.8132 28.8915 35.946 28.9492L30.5558 28.9468C29.1655 29.0621 28.0565 28.5024 27.1239 27.5519C26.3776 26.7918 25.6865 25.9827 24.9689 25.1969C24.6747 24.8758 24.3668 24.5735 23.999 24.3347C23.2631 23.857 22.6244 24.0033 22.2039 24.7707C21.7756 25.5513 21.6785 26.4156 21.6364 27.2856C21.5787 28.5548 21.195 28.8885 19.92 28.9466C17.1952 29.0751 14.6093 28.6629 12.207 27.2884C10.0891 26.0766 8.4467 24.3659 7.0172 22.4292C4.23393 18.6581 2.10251 14.5143 0.186862 10.2543C-0.244334 9.29457 0.0710095 8.77937 1.12998 8.76113C2.88844 8.72697 4.64665 8.7294 6.40718 8.7587C7.12187 8.76916 7.59501 9.17908 7.87096 9.85426C8.82234 12.1936 9.98646 14.4192 11.4477 16.4822C11.8368 17.0314 12.2336 17.5807 12.7987 17.9672C13.4238 18.3953 13.8997 18.2534 14.1938 17.5571C14.3804 17.1156 14.4621 16.64 14.5041 16.1671C14.6434 14.5402 14.6618 12.916 14.4174 11.2948C14.2674 10.283 13.6975 9.62802 12.6879 9.43656C12.1727 9.33894 12.2494 9.14723 12.4989 8.85316C12.9321 8.34598 13.3396 8.03027 14.1519 8.03027H20.2438C21.2028 8.21955 21.4158 8.65038 21.5471 9.61538L21.5523 16.3821C21.5419 16.7557 21.7389 17.8643 22.4118 18.1115C22.9503 18.2876 23.3053 17.8567 23.6284 17.5153C25.087 15.9672 26.1279 14.1378 27.0579 12.2434C27.4707 11.4104 27.8255 10.5454 28.1694 9.68103C28.4242 9.03964 28.8241 8.72405 29.5465 8.73803L35.4096 8.74326C35.5834 8.74326 35.7593 8.74581 35.9277 8.77463C36.9156 8.943 37.1864 9.36799 36.8812 10.3327C36.4004 11.8464 35.465 13.1077 34.5503 14.375C33.5726 15.7279 32.5269 17.0345 31.5572 18.3954C30.6664 19.6382 30.7371 20.2646 31.8438 21.344Z" fill="white"/>
</g>
<defs>
<clipPath id="clip0">
<rect width="37" height="37" fill="white"/>
</clipPath>
</defs>
</svg>
