<svg fill="none" xmlns="http://www.w3.org/2000/svg" viewBox="0 0 380 384">
  <path d="M268.922 131.042l-55.406-11.828c-9.854-2.089-16.928-10.992-16.928-21.3149V10.7569c0-6.97971 7.237-11.493546 13.289-8.27535l56.428 29.84155c8.096 4.263 13.167 12.7892 13.167 22.1094v67.8745c-.041 5.643-5.112 9.864-10.55 8.735z" fill="#03BD64"/>
  <path d="M332.016 144.751l-31.158-6.394c-7.156-1.463-12.349-7.899-12.349-15.381V55.2269c0-4.89 5.07-8.0664 9.364-5.8513l33.12 17.2612c4.989 2.5913 8.138 7.8575 8.138 13.5834v58.5548c0 3.845-3.435 6.729-7.115 5.976z" fill="#EBEBEB"/>
  <path d="M373.723 153.904l-21.14-4.598c-4.17-.919-7.196-4.681-7.196-9.069V82.0586c0-3.7615 3.925-6.1438 7.155-4.3884l18.728 10.1561c5.193 2.8003 8.464 8.359 8.464 14.3777v46.768c0 3.176-2.903 5.601-6.011 4.932z" fill="#EBEBEB"/>
  <path d="M267.124 242.301l-54.098 7.565c-8.709 1.212-16.478-5.684-16.478-14.67v-87.519c0-8.233 7.196-14.502 15.17-13.207l54.138 8.902c7.81 1.296 13.576 8.192 13.576 16.3v68.21c0 7.272-5.234 13.416-12.308 14.419z" fill="#03BD64"/>
  <path d="M330.912 233.273l-30.709 4.179c-6.174.836-11.694-4.054-11.694-10.448v-67.917c0-5.559 4.866-9.78 10.222-8.902l31.935 5.266c4.866.794 8.465 5.099 8.465 10.156v58.053c0 4.848-3.517 8.944-8.219 9.613z" fill="#03BD64"/>
  <path d="M373.557 227.253l-19.177 2.926c-4.703.711-8.955-3.009-8.955-7.899v-56.841c0-4.18 3.721-7.314 7.728-6.562l19.341 3.678c4.212.794 7.278 4.556 7.278 8.944v48.398c-.041 3.678-2.658 6.813-6.215 7.356z" fill="#03BD64"/>
  <path d="M267.492 353.307l-57.696 27.626c-6.174 2.968-13.248-1.63-13.248-8.61v-87.1c0-10.24 7.237-18.975 17.133-20.688l54.956-9.404c5.643-.962 10.795 3.469 10.795 9.362v69.588c0 8.234-4.662 15.715-11.94 19.226z" fill="#03BD64"/>
  <path d="M332.016 321.042l-33.979 16.844c-3.885 1.922-8.383-.962-8.383-5.35v-69.923c0-6.269 4.376-11.619 10.427-12.705l33.08-6.019c3.108-.585 5.97 1.881 5.97 5.141v60.435c0 4.89-2.78 9.404-7.115 11.577z" fill="#03BD64"/>
  <path d="M374.416 300.52l-21.263 10.741c-3.557 1.797-7.728-.836-7.728-4.89v-57.217c0-4.806 3.394-8.902 8.014-9.696l19.546-3.386c3.557-.627 6.787 2.174 6.787 5.851v49.82c-.041 3.72-2.085 7.105-5.356 8.777z" fill="#03BD64"/>
  <path d="M111.903 131.042l55.406-11.828c9.854-2.089 16.928-10.992 16.928-21.3149V10.7569c0-6.97971-7.237-11.493546-13.289-8.27535L114.52 32.3231c-8.096 4.263-13.166 12.7892-13.166 22.1094v67.8745c.081 5.643 5.152 9.864 10.549 8.735z" fill="#1482DE"/>
  <path d="M48.8142 144.751l31.199-6.394c7.1558-1.463 12.3488-7.899 12.3488-15.381V55.2269c0-4.89-5.0704-8.0664-9.3638-5.8513L49.8773 66.6368c-4.9885 2.5913-8.1371 7.8575-8.1371 13.5834v58.5548c0 3.845 3.3939 6.729 7.074 5.976z" fill="#EBEBEB"/>
  <path d="M7.1036 153.904l21.1401-4.597c4.1708-.92 7.1966-4.682 7.1966-9.07V82.0586c0-3.7615-3.9254-6.1438-7.1557-4.3884L9.55699 87.7845c-5.19302 2.8003-8.46422 8.359-8.46422 14.3775v46.768c0 3.219 2.94408 5.643 6.01083 4.974z" fill="#1482DE"/>
  <path d="M113.703 242.301l54.097 7.565c8.709 1.212 16.479-5.684 16.479-14.67v-87.519c0-8.233-7.197-14.502-15.171-13.207l-54.097 8.902c-7.81 1.296-13.575 8.192-13.575 16.3v68.21c0 7.272 5.233 13.416 12.267 14.419z" fill="#1482DE"/>
  <path d="M49.9591 233.273l30.7084 4.179c6.1743.836 11.6945-4.054 11.6945-10.448v-67.917c0-5.559-4.8659-9.78-10.2225-8.902l-31.935 5.266c-4.8659.794-8.4643 5.099-8.4643 10.156v58.053c0 4.848 3.5166 8.944 8.2189 9.613z" fill="#1482DE"/>
  <path d="M7.30805 227.253l19.17735 2.926c4.7024.711 8.9549-3.009 8.9549-7.899v-56.841c0-4.18-3.7209-7.314-7.7282-6.562l-19.34091 3.678c-4.21167.794-7.27842 4.556-7.27842 8.944v48.398c0 3.678 2.65785 6.813 6.21528 7.356z" fill="#1482DE"/>
  <path d="M113.375 353.307l57.696 27.626c6.174 2.968 13.248-1.63 13.248-8.61v-87.1c0-10.24-7.237-18.975-17.132-20.688l-54.957-9.404c-5.642-.962-10.794 3.469-10.794 9.362v69.588c0 8.234 4.661 15.715 11.939 19.226z" fill="#1482DE"/>
  <path d="M48.8551 321.042l33.9795 16.844c3.8845 1.922 8.3824-.962 8.3824-5.35v-69.923c0-6.269-4.3752-11.619-10.4269-12.705l-33.0799-6.019c-3.1077-.585-5.97 1.881-5.97 5.141v60.435c0 4.89 2.7397 9.404 7.1149 11.577z" fill="#EBEBEB"/>
  <path d="M6.44936 300.52l21.26274 10.741c3.5575 1.797 7.7282-.836 7.7282-4.89v-57.217c0-4.806-3.3938-8.902-8.0144-9.696l-19.54539-3.386c-3.55743-.627-6.78774 2.174-6.78774 5.851v49.82c0 3.72 2.08539 7.105 5.35659 8.777z" fill="#EBEBEB"/>
</svg>
