<svg width="180" height="59" viewBox="0 0 180 59" fill="none" xmlns="http://www.w3.org/2000/svg">
<path d="M37.9443 20.608L31.1389 19.1518C29.9285 18.8946 29.0596 17.7986 29.0596 16.5276V5.79907C29.0596 4.93976 29.9485 4.38404 30.6919 4.78025L37.6229 8.45419C38.6173 8.97904 39.2401 10.0287 39.2401 11.1762V19.5326C39.2351 20.2273 38.6123 20.747 37.9443 20.608Z" fill="#03BD64"/>
<path d="M45.694 22.2958L41.8669 21.5085C40.9879 21.3284 40.3501 20.536 40.3501 19.6149V11.274C40.3501 10.6719 40.9729 10.2809 41.5002 10.5536L45.5684 12.6787C46.1812 12.9977 46.5679 13.6461 46.5679 14.351V21.56C46.5679 22.0334 46.146 22.3884 45.694 22.2958Z" fill="#EBEBEB"/>
<path d="M50.817 23.4227L48.2204 22.8566C47.7081 22.7434 47.3364 22.2803 47.3364 21.7401V14.5774C47.3364 14.1143 47.8186 13.821 48.2154 14.0371L50.5156 15.2875C51.1535 15.6323 51.5553 16.3166 51.5553 17.0576V22.8155C51.5553 23.2065 51.1987 23.505 50.817 23.4227Z" fill="#EBEBEB"/>
<path d="M37.7235 34.3056L31.0787 35.2369C30.009 35.3861 29.0547 34.5371 29.0547 33.4308V22.656C29.0547 21.6423 29.9386 20.8705 30.918 21.03L37.5678 22.126C38.5271 22.2855 39.2352 23.1345 39.2352 24.1328V32.5303C39.2352 33.4257 38.5923 34.1821 37.7235 34.3056Z" fill="#03BD64"/>
<path d="M45.5584 33.1941L41.7865 33.7087C41.0281 33.8116 40.3501 33.2095 40.3501 32.4223V24.0607C40.3501 23.3763 40.9478 22.8566 41.6057 22.9647L45.5283 23.613C46.1259 23.7108 46.5679 24.2408 46.5679 24.8634V32.0106C46.5679 32.6075 46.136 33.1118 45.5584 33.1941Z" fill="#03BD64"/>
<path d="M50.7968 32.4532L48.4412 32.8133C47.8636 32.9008 47.3413 32.4429 47.3413 31.8408V24.8428C47.3413 24.3283 47.7984 23.9424 48.2906 24.035L50.6662 24.4878C51.1835 24.5856 51.5602 25.0487 51.5602 25.589V31.5475C51.5552 32.0003 51.2337 32.3863 50.7968 32.4532Z" fill="#03BD64"/>
<path d="M37.7687 47.9722L30.682 51.3734C29.9236 51.7388 29.0547 51.1727 29.0547 50.3134V39.5901C29.0547 38.3294 29.9437 37.254 31.1591 37.043L37.9093 35.8852C38.6024 35.7669 39.2352 36.3123 39.2352 37.0378V45.6052C39.2352 46.6189 38.6627 47.54 37.7687 47.9722Z" fill="#03BD64"/>
<path d="M45.6945 43.9998L41.5208 46.0735C41.0437 46.3102 40.4912 45.9552 40.4912 45.4149V36.8063C40.4912 36.0345 41.0286 35.3758 41.7719 35.2421L45.8351 34.5011C46.2168 34.4291 46.5684 34.7326 46.5684 35.134V42.5745C46.5684 43.1765 46.2269 43.7323 45.6945 43.9998Z" fill="#03BD64"/>
<path d="M50.9022 41.4733L48.2906 42.7957C47.8536 43.017 47.3413 42.6928 47.3413 42.1937V35.1494C47.3413 34.5577 47.7582 34.0534 48.3257 33.9557L50.7264 33.5389C51.1634 33.4617 51.5602 33.8064 51.5602 34.2592V40.3928C51.5552 40.8507 51.304 41.2675 50.9022 41.4733Z" fill="#03BD64"/>
<path d="M18.6581 20.608L25.4635 19.1518C26.674 18.8946 27.5428 17.7986 27.5428 16.5276V5.79907C27.5428 4.93976 26.6539 4.38404 25.9105 4.78025L18.9795 8.45419C17.9851 8.97904 17.3623 10.0287 17.3623 11.1762V19.5326C17.3723 20.2273 17.9951 20.747 18.6581 20.608Z" fill="#1482DE"/>
<path d="M10.9089 22.2958L14.7411 21.5085C15.62 21.3284 16.2578 20.536 16.2578 19.6149V11.274C16.2578 10.6719 15.6351 10.2809 15.1077 10.5536L11.0395 12.6787C10.4268 12.9977 10.04 13.6461 10.04 14.351V21.56C10.04 22.0334 10.4569 22.3884 10.9089 22.2958Z" fill="#EBEBEB"/>
<path d="M5.78567 23.4227L8.38228 22.8567C8.89457 22.7434 9.26623 22.2803 9.26623 21.7401V14.5774C9.26623 14.1143 8.78408 13.821 8.3873 14.0371L6.08701 15.2824C5.44916 15.6271 5.04736 16.3115 5.04736 17.0524V22.8103C5.04736 23.2066 5.40898 23.505 5.78567 23.4227Z" fill="#1482DE"/>
<path d="M18.8793 34.3056L25.524 35.2369C26.5938 35.3861 27.5481 34.5371 27.5481 33.4308V22.656C27.5481 21.6423 26.6641 20.8705 25.6847 21.03L19.04 22.126C18.0807 22.2855 17.3726 23.1345 17.3726 24.1328V32.5303C17.3726 33.4257 18.0154 34.1821 18.8793 34.3056Z" fill="#1482DE"/>
<path d="M11.0496 33.1941L14.8214 33.7087C15.5798 33.8116 16.2578 33.2095 16.2578 32.4223V24.0607C16.2578 23.3763 15.6602 22.8566 15.0022 22.9647L11.0797 23.613C10.482 23.7108 10.04 24.2408 10.04 24.8634V32.0106C10.04 32.6075 10.472 33.1118 11.0496 33.1941Z" fill="#1482DE"/>
<path d="M5.81078 32.4532L8.16631 32.8133C8.7439 32.9008 9.26623 32.4429 9.26623 31.8408V24.8428C9.26623 24.3283 8.80919 23.9424 8.31699 24.035L5.94136 24.4878C5.42405 24.5856 5.04736 25.0487 5.04736 25.589V31.5475C5.04736 32.0003 5.37382 32.3863 5.81078 32.4532Z" fill="#1482DE"/>
<path d="M18.8391 47.9722L25.9258 51.3734C26.6842 51.7388 27.5531 51.1727 27.5531 50.3134V39.5901C27.5531 38.3294 26.6641 37.254 25.4487 37.043L18.6985 35.8852C18.0054 35.7669 17.3726 36.3123 17.3726 37.0378V45.6052C17.3726 46.6189 17.9451 47.54 18.8391 47.9722Z" fill="#1482DE"/>
<path d="M10.9139 43.9998L15.0876 46.0735C15.5647 46.3102 16.1172 45.9552 16.1172 45.4149V36.8063C16.1172 36.0345 15.5798 35.3758 14.8365 35.2421L10.7733 34.5011C10.3916 34.4291 10.04 34.7326 10.04 35.134V42.5745C10.04 43.1765 10.3765 43.7323 10.9139 43.9998Z" fill="#EBEBEB"/>
<path d="M5.70531 41.4733L8.31699 42.7957C8.75394 43.017 9.26623 42.6928 9.26623 42.1937V35.1494C9.26623 34.5577 8.84937 34.0534 8.28183 33.9557L5.88109 33.5389C5.44414 33.4617 5.04736 33.8064 5.04736 34.2592V40.3928C5.04736 40.8507 5.30351 41.2675 5.70531 41.4733Z" fill="#EBEBEB"/>
<path d="M76.7431 34.2043H73.9305V37.4769H71.4394V34.2043H57.9893V30.0621L70.0381 20.4245H73.9356V31.894H76.7431V34.2043V34.2043ZM71.4394 31.894V22.7348L70.8568 22.7245L60.4754 31.0604L60.4804 31.894H71.4394Z" fill="#1482DE"/>
<path d="M97.7069 32.4996C97.7069 35.8133 95.939 37.4702 92.4082 37.4702H79.0635V20.4229H91.8356C93.4528 20.4229 94.7185 20.8088 95.6225 21.5807C96.617 22.4091 97.1142 23.6389 97.1142 25.2649C97.1142 26.9784 96.4814 28.0795 95.2207 28.5581C96.0444 28.8205 96.6672 29.3299 97.0941 30.0863C97.5009 30.7655 97.7069 31.5734 97.7069 32.4996ZM94.6231 25.2597C94.6231 23.572 93.6889 22.7281 91.8205 22.7281H81.5496V27.6113H91.8205C92.7396 27.6113 93.4127 27.4518 93.8345 27.1327C94.3619 26.7725 94.6231 26.1499 94.6231 25.2597ZM95.2157 32.5099C95.2157 31.6557 94.9546 30.9868 94.4423 30.5031C93.9249 30.0194 93.2419 29.7776 92.3931 29.7776H81.5546V35.1598H92.3931C94.2765 35.1598 95.2157 34.2799 95.2157 32.5099Z" fill="#2B2B2B"/>
<path d="M120.845 37.4753H118.354V33.2868C118.354 32.6642 118.048 32.16 117.44 31.7843C116.913 31.4653 116.325 31.3058 115.672 31.3058H103.965V37.4753H101.474V20.4229H116.415C117.907 20.4229 119.032 20.9683 119.801 22.0592C120.494 23.0163 120.845 24.2924 120.845 25.8772C120.845 27.2871 120.624 28.3419 120.187 29.0417C119.876 29.5203 119.379 29.9165 118.696 30.2201C120.127 30.8478 120.845 31.8718 120.845 33.2971V37.4753V37.4753ZM118.354 25.8618C118.354 24.7452 118.128 23.9476 117.686 23.4588C117.239 22.9751 116.491 22.7281 115.441 22.7281H103.965V28.9851H115.436C116.486 28.9851 117.244 28.7227 117.711 28.203C118.143 27.7296 118.354 26.9475 118.354 25.8618Z" fill="#2B2B2B"/>
<path d="M144.833 37.4753H142.015L140.061 33.6831H128.188L126.234 37.4753H123.422L132.166 20.4229H136.043L144.833 37.4753ZM138.976 31.4344L134.441 22.4503L133.838 22.4554L129.293 31.4344H138.976Z" fill="#2B2B2B"/>
<path d="M149.684 37.4753H147.193V20.4229H149.684V37.4753Z" fill="#2B2B2B"/>
<path d="M174.059 37.4754H170.312L156.159 22.6458V37.4754H153.667V20.3972H157.289L171.567 35.3605V20.3972H174.059V37.4754Z" fill="#2B2B2B"/>
</svg>
